<?xml version="1.0" encoding="utf-8" standalone="no"?>
<!DOCTYPE svg PUBLIC "-//W3C//DTD SVG 1.1//EN"
  "http://www.w3.org/Graphics/SVG/1.1/DTD/svg11.dtd">
<svg xmlns:xlink="http://www.w3.org/1999/xlink" width="684pt" height="295.310094pt" viewBox="0 0 684 295.310094" xmlns="http://www.w3.org/2000/svg" version="1.1">
 <metadata>
  <rdf:RDF xmlns:dc="http://purl.org/dc/elements/1.1/" xmlns:cc="http://creativecommons.org/ns#" xmlns:rdf="http://www.w3.org/1999/02/22-rdf-syntax-ns#">
   <cc:Work>
    <dc:type rdf:resource="http://purl.org/dc/dcmitype/StillImage"/>
    <dc:date>2026-10-03T06:53:34.783784</dc:date>
    <dc:format>image/svg+xml</dc:format>
    <dc:creator>
     <cc:Agent>
      <dc:title>Matplotlib v3.9.4, https://matplotlib.org/</dc:title>
     </cc:Agent>
    </dc:creator>
   </cc:Work>
  </rdf:RDF>
 </metadata>
 <defs>
  <style type="text/css">*{stroke-linejoin: round; stroke-linecap: butt}</style>
 </defs>
 <g id="figure_1">
  <g id="patch_1">
   <path d="M 0 295.310094
L 684 295.310094
L 684 0
L 0 0
z
" style="fill: #ffffff"/>
  </g>
  <g id="axes_1">
   <g id="patch_2">
    <path d="M 20.592 101.277294
L 181.296 101.277294
Q 185.3136 101.277294 185.3136 99.614094
L 185.3136 41.402094
Q 185.3136 39.738894 181.296 39.738894
L 20.592 39.738894
Q 16.5744 39.738894 16.5744 41.402094
L 16.5744 99.614094
Q 16.5744 101.277294 20.592 101.277294
z
" clip-path="url(#p5d569be526)" style="fill: #eaf4f2; stroke: #087f7a; stroke-width: 1.3; stroke-linejoin: miter"/>
   </g>
   <g id="patch_3">
    <path d="M 234.864 101.277294
L 429.048 101.277294
Q 433.0656 101.277294 433.0656 99.614094
L 433.0656 41.402094
Q 433.0656 39.738894 429.048 39.738894
L 234.864 39.738894
Q 230.8464 39.738894 230.8464 41.402094
L 230.8464 99.614094
Q 230.8464 101.277294 234.864 101.277294
z
" clip-path="url(#p5d569be526)" style="fill: #eaf4f2; stroke: #087f7a; stroke-width: 1.3; stroke-linejoin: miter"/>
   </g>
   <g id="patch_4">
    <path d="M 496.008 101.277294
L 663.408 101.277294
Q 667.4256 101.277294 667.4256 99.614094
L 667.4256 41.402094
Q 667.4256 39.738894 663.408 39.738894
L 496.008 39.738894
Q 491.9904 39.738894 491.9904 41.402094
L 491.9904 99.614094
Q 491.9904 101.277294 496.008 101.277294
z
" clip-path="url(#p5d569be526)" style="fill: #edf3fa; stroke: #326798; stroke-width: 1.3; stroke-linejoin: miter"/>
   </g>
   <g id="patch_5">
    <path d="M 496.008 206.613294
L 663.408 206.613294
Q 667.4256 206.613294 667.4256 204.950094
L 667.4256 146.738094
Q 667.4256 145.074894 663.408 145.074894
L 496.008 145.074894
Q 491.9904 145.074894 491.9904 146.738094
L 491.9904 204.950094
Q 491.9904 206.613294 496.008 206.613294
z
" clip-path="url(#p5d569be526)" style="fill: #f6f6f2; stroke: #183a45; stroke-width: 1.3; stroke-linejoin: miter"/>
   </g>
   <g id="patch_6">
    <path d="M 261.648 206.613294
L 435.744 206.613294
Q 439.7616 206.613294 439.7616 204.950094
L 439.7616 146.738094
Q 439.7616 145.074894 435.744 145.074894
L 261.648 145.074894
Q 257.6304 145.074894 257.6304 146.738094
L 257.6304 204.950094
Q 257.6304 206.613294 261.648 206.613294
z
" clip-path="url(#p5d569be526)" style="fill: #eaf4f2; stroke: #087f7a; stroke-width: 1.3; stroke-linejoin: miter"/>
   </g>
   <g id="patch_7">
    <path d="M 20.592 206.613294
L 187.992 206.613294
Q 192.0096 206.613294 192.0096 204.950094
L 192.0096 146.738094
Q 192.0096 145.074894 187.992 145.074894
L 20.592 145.074894
Q 16.5744 145.074894 16.5744 146.738094
L 16.5744 204.950094
Q 16.5744 206.613294 20.592 206.613294
z
" clip-path="url(#p5d569be526)" style="fill: #eaf4f2; stroke: #087f7a; stroke-width: 1.3; stroke-linejoin: miter"/>
   </g>
   <g id="patch_8">
    <path d="M 20.592 280.071294
L 187.992 280.071294
Q 192.0096 280.071294 192.0096 278.408094
L 192.0096 236.828094
Q 192.0096 235.164894 187.992 235.164894
L 20.592 235.164894
Q 16.5744 235.164894 16.5744 236.828094
L 16.5744 278.408094
Q 16.5744 280.071294 20.592 280.071294
z
" clip-path="url(#p5d569be526)" style="fill: #edf3fa; stroke: #326798; stroke-width: 1.3; stroke-linejoin: miter"/>
   </g>
   <g id="text_1">
    <text style="fill: #087f7a; font: 700 11px 'DejaVu Sans'; text-anchor: start" x="20.592" y="19.226094" transform="rotate(-0 20.592 19.226094)">CHUẨN BỊ CÔNG KHAI</text>
   </g>
   <g id="text_2">
    <text style="fill: #183a45; font: 700 10px 'DejaVu Sans'; text-anchor: middle" x="100.944" y="58.687036" transform="rotate(-0 100.944 58.687036)">Bản đồ + danh mục POI</text>
   </g>
   <g id="text_3">
    <text style="fill: #183a45; font: 9.3px 'DejaVu Sans'" transform="translate(67.084008 77.144771)">419 POI, 6 loại</text>
    <text style="fill: #183a45; font: 9.3px 'DejaVu Sans'" transform="translate(31.750547 91.124414)">Ứng viên truy vấn trên đường</text>
   </g>
   <g id="text_4">
    <text style="fill: #183a45; font: 700 10px 'DejaVu Sans'; text-anchor: middle" x="331.956" y="58.687036" transform="rotate(-0 331.956 58.687036)">(1) Chọn tập phủ, khóa kế hoạch</text>
   </g>
   <g id="text_5">
    <text style="fill: #183a45; font: 9.3px 'DejaVu Sans'" transform="translate(273.823734 78.013303)">30 / 67 query loại–tọa độ</text>
    <text style="fill: #183a45; font: 9.3px 'DejaVu Sans'" transform="translate(280.833609 90.627882)">19 / 52 tọa độ cố định</text>
   </g>
   <g id="text_6">
    <text style="fill: #183a45; font: 700 10px 'DejaVu Sans'; text-anchor: middle" x="579.708" y="58.669849" transform="rotate(-0 579.708 58.669849)">(2) Lịch đăng ký cố định</text>
   </g>
   <g id="text_7">
    <text style="fill: #183a45; font: 9.3px 'DejaVu Sans'" transform="translate(528.539109 78.121852)">Mỗi 60 s, trọn một giờ</text>
    <text style="fill: #183a45; font: 9.3px 'DejaVu Sans'" transform="translate(513.148336 91.253161)">Kể cả không đi / không dùng</text>
   </g>
   <g id="patch_9">
    <path d="M 186.64434 69.122094
Q 206.406348 69.122094 224.491305 69.122094
" style="fill: none; stroke: #183a45; stroke-width: 1.5; stroke-linecap: round"/>
    <path d="M 220.491305 67.122094
L 224.491305 69.122094
L 220.491305 71.122094
z
" style="fill: #183a45; stroke: #183a45; stroke-width: 1.5; stroke-linecap: round"/>
   </g>
   <g id="patch_10">
    <path d="M 434.393479 69.122094
Q 460.852179 69.122094 485.633829 69.122094
" style="fill: none; stroke: #183a45; stroke-width: 1.5; stroke-linecap: round"/>
    <path d="M 481.633829 67.122094
L 485.633829 69.122094
L 481.633829 71.122094
z
" style="fill: #183a45; stroke: #183a45; stroke-width: 1.5; stroke-linecap: round"/>
   </g>
   <g id="text_8">
    <text style="fill: #087f7a; font: 700 10px 'DejaVu Sans'; text-anchor: middle" x="328.608" y="121.790094" transform="rotate(-0 328.608 121.790094)">Không phụ thuộc GPS: S1, S2, S3</text>
   </g>
   <g id="text_9">
    <text style="fill: #326798; font: 700 10.5px 'DejaVu Sans'; text-anchor: start" x="496.008" y="19.226094" transform="rotate(-0 496.008 19.226094)">LỊCH CÔNG KHAI: S9, S10</text>
   </g>
   <g id="text_10">
    <text style="fill: #183a45; font: 700 10px 'DejaVu Sans'; text-anchor: middle" x="579.708" y="163.846474" transform="rotate(-0 579.708 163.846474)">Máy chủ dịch vụ</text>
   </g>
   <g id="text_11">
    <text style="fill: #183a45; font: 9.3px 'DejaVu Sans'" transform="translate(512.046867 183.416438)">Nhận loại + tọa độ công khai</text>
    <text style="fill: #183a45; font: 9.3px 'DejaVu Sans'" transform="translate(523.543266 195.896747)">Trả top-10 POI khả dụng</text>
   </g>
   <g id="patch_11">
    <path d="M 579.708 104.388451
Q 579.708 123.179618 579.708 140.293734
" style="fill: none; stroke: #326798; stroke-width: 1.5; stroke-linecap: round"/>
    <path d="M 581.708 136.293734
L 579.708 140.293734
L 577.708 136.293734
z
" style="fill: #326798; stroke: #326798; stroke-width: 1.5; stroke-linecap: round"/>
   </g>
   <g id="text_12">
    <text style="fill: #326798; font: 9px 'DejaVu Sans'; text-anchor: end" x="479.268" y="131.492094" transform="rotate(-0 479.268 131.492094)">Query</text>
   </g>
   <g id="text_13">
    <text style="fill: #183a45; font: 700 10px 'DejaVu Sans'; text-anchor: middle" x="348.696" y="164.023036" transform="rotate(-0 348.696 164.023036)">(3) Cache trên thiết bị</text>
   </g>
   <g id="text_14">
    <text style="fill: #183a45; font: 9.3px 'DejaVu Sans'" transform="translate(288.041836 183.627141)">Hợp phản hồi còn hiệu lực</text>
    <text style="fill: #183a45; font: 9.3px 'DejaVu Sans'" transform="translate(285.009891 196.10745)">Đọc cache không gửi query</text>
   </g>
   <g id="patch_12">
    <path d="M 490.658434 174.458094
Q 467.548372 174.458094 446.115361 174.458094
" style="fill: none; stroke: #183a45; stroke-width: 1.5; stroke-linecap: round"/>
    <path d="M 450.115361 176.458094
L 446.115361 174.458094
L 450.115361 172.458094
z
" style="fill: #183a45; stroke: #183a45; stroke-width: 1.5; stroke-linecap: round"/>
   </g>
   <g id="text_15">
    <text style="fill: #183a45; font: 9px 'DejaVu Sans'; text-anchor: middle" x="467.2152" y="163.370094" transform="rotate(-0 467.2152 163.370094)">POI</text>
   </g>
   <g id="text_16">
    <text style="fill: #183a45; font: 700 10px 'DejaVu Sans'; text-anchor: middle" x="104.292" y="164.005849" transform="rotate(-0 104.292 164.005849)">(4) Xếp hạng cục bộ</text>
   </g>
   <g id="text_17">
    <text style="fill: #183a45; font: 9.3px 'DejaVu Sans'" transform="translate(58.097883 183.416438)">Top-5 theo GPS thật</text>
    <text style="fill: #183a45; font: 9.3px 'DejaVu Sans'" transform="translate(38.940609 195.896747)">Không gửi lựa chọn ra ngoài</text>
   </g>
   <g id="patch_13">
    <path d="M 254.957763 174.458094
Q 225.821614 174.458094 198.362517 174.458094
" style="fill: none; stroke: #183a45; stroke-width: 1.5; stroke-linecap: round"/>
    <path d="M 202.362517 176.458094
L 198.362517 174.458094
L 202.362517 172.458094
z
" style="fill: #183a45; stroke: #183a45; stroke-width: 1.5; stroke-linecap: round"/>
   </g>
   <g id="text_18">
    <text style="fill: #183a45; font: 700 10px 'DejaVu Sans'; text-anchor: middle" x="104.292" y="249.744794" transform="rotate(-0 104.292 249.744794)">GPS thật</text>
   </g>
   <g id="text_19">
    <text style="fill: #183a45; font: 9.3px 'DejaVu Sans'; text-anchor: middle" x="104.292" y="268.481216" transform="rotate(-0 104.292 268.481216)">Chỉ đưa vào xếp hạng</text>
   </g>
   <g id="patch_14">
    <path d="M 104.292 233.442274
Q 104.292 221.582169 104.292 211.399115
" style="fill: none; stroke-dasharray: 5.55,2.4; stroke-dashoffset: 0; stroke: #326798; stroke-width: 1.5; stroke-linecap: round"/>
    <path d="M 102.292 215.399115
L 104.292 211.399115
L 106.292 215.399115
z
" style="fill: #326798; stroke-dasharray: 5.55,2.4; stroke-dashoffset: 0; stroke: #326798; stroke-width: 1.5; stroke-linecap: round"/>
   </g>
   <g id="text_20">
    <text style="fill: #087f7a; font: 10px 'DejaVu Sans'; text-anchor: start" x="275.04" y="246.530094" transform="rotate(-0 275.04 246.530094)">S1: vị trí  •  S2: nơi dừng  •  S3: đường đi</text>
   </g>
   <g id="text_21">
    <text style="fill: #326798; font: 10px 'DejaVu Sans'; text-anchor: start" x="275.04" y="263.162094" transform="rotate(-0 275.04 263.162094)">S9 / S10 cần cả kế hoạch độc lập GPS và lịch cố định.</text>
   </g>
  </g>
 </g>
 <defs>
  <clipPath id="p5d569be526">
   <rect x="7.2" y="10.910094" width="669.6" height="277.2"/>
  </clipPath>
 </defs>
</svg>
